<svg xmlns="http://www.w3.org/2000/svg" version="1.1" xmlns:xlink="http://www.w3.org/1999/xlink" xmlns:svgjs="http://svgjs.dev/svgjs" width="100%" height="100%" viewBox="0 0 1000 600"><g><rect width="333.3333333333333" height="333.3333333333333" y="324.4825981171317" fill="#2eafbb" transform="matrix(0.41355081636910057,0,0,0.41355081636910057,0,96.8848503228364)" x="302.2604064941406"/><path d="M442.04401241606104 525.3279149998355L442.04401241606104 525.3279149998355Q442.04401241606104 538.3010413817517 435.6000306027241 547.4418437777628Q429.1560487893871 556.5826461737738 417.573914076429 561.3801480524256Q405.99177936347087 566.1492623459966 390.3218323988805 566.1492623459966L390.3218323988805 566.1492623459966Q382.0610451403736 566.1492623459966 374.6518854342901 565.3544099637347Q367.2711133132874 564.559557581473 361.0826197656774 563.0550155721917Q354.89412621806747 561.5788611479911 350.21017467973877 559.3646295116903L350.21017467973877 559.3646295116903L350.21017467973877 543.0985432604035Q357.7044971410646 546.1927900342084 368.4917794717609 548.832835446721Q379.2506742173764 551.5012684443143 391.0315220259 551.5012684443143L391.0315220259 551.5012684443143Q402.0175174521617 551.5012684443143 409.5970026687299 548.5489595959132Q417.17648788529806 545.5966507475121 421.1223622115264 540.0610716567601Q425.06823653775484 534.5254925660081 425.06823653775484 526.7472942538744L425.06823653775484 526.7472942538744Q425.06823653775484 519.2529717925486 421.7752766683843 514.1999816481698Q418.4823167990139 509.17537908887175 410.8460564122842 505.03079166707795Q403.20979602555445 500.88620424528415 390.03795654807266 496.2022527069555L390.03795654807266 496.2022527069555Q380.7552162266577 492.90929283758504 373.65831995646283 488.9634185113567Q366.5898112713487 485.01754418512826 361.7923093926969 480.02132921091106Q356.99480751404514 475.0535018217746 354.55347519709807 468.46758208303373Q352.11214288015105 461.85327475921207 352.11214288015105 453.3937744051397L352.11214288015105 453.3937744051397Q352.11214288015105 441.69808935185847 358.04514816203397 433.38052692319Q363.97815344391694 425.03457690944083 374.50994750888617 420.60611363683915Q385.04174157385546 416.14926277915674 398.72455758279125 416.14926277915674L398.72455758279125 416.14926277915674Q410.3918550509917 416.14926277915674 420.3275098292646 418.3634944154576Q430.26316460753753 420.5493384666776 438.5239518660444 424.23972452717896L438.5239518660444 424.23972452717896L433.2438610410194 438.80255567361894Q425.3521123885626 435.50959580424853 416.52357342844016 433.3237517530285Q407.69503446831766 431.13790770180844 398.3271313916604 431.13790770180844L398.3271313916604 431.13790770180844Q388.93084072992224 431.13790770180844 382.48685891658533 433.86311586956333Q376.07126468832905 436.61671162239895 372.66475447863553 441.61292659661615Q369.28663185402274 446.60914157083334 369.28663185402274 453.47893716038203L369.28663185402274 453.47893716038203Q369.28663185402274 461.1719727172733 372.5228165532316 466.2533504467329Q375.7590012524405 471.33472817619247 382.912672692797 475.28060250242083Q390.03795654807266 479.2264768286492 401.8188043565963 483.51300217584696L401.8188043565963 483.51300217584696Q414.67838039818946 488.2253412992564 423.6772448687966 493.4486569541198Q432.64772175432296 498.7003601940641 437.33167329265166 506.2230702404707Q442.04401241606104 513.7741678719581 442.04401241606104 525.3279149998355ZM587.64393629538 489.8150460637801L587.64393629538 489.8150460637801Q587.64393629538 514.4554699138968 578.6450718247729 530.9770444309106Q569.6745949392465 547.4986189479243 552.6704314758595 555.8161813765928Q535.6378804273917 564.162131390342 511.3948827684058 564.162131390342L511.3948827684058 564.162131390342L471.76581399563736 564.162131390342L471.76581399563736 418.24994407513447L515.7949584559267 418.24994407513447Q538.0508251592579 418.24994407513447 554.1181983149793 426.3971809933182Q570.1855714707006 434.51603032642123 578.9005600904999 450.44146555673865Q587.64393629538 466.366900787056 587.64393629538 489.8150460637801ZM569.7881452795696 490.41118535047644L569.7881452795696 490.41118535047644Q569.7881452795696 470.7385888894961 563.2306131259095 457.96417560314524Q556.7014685573301 445.1897623167944 544.0689931963832 438.97288118410364Q531.4649054205171 432.7276124663321 513.183300628495 432.7276124663321L513.183300628495 432.7276124663321L488.74158987394367 432.7276124663321L488.74158987394367 549.599300243902L509.40775181275126 549.599300243902Q539.5269795834585 549.599300243902 554.657562431514 534.7242056615735Q569.7881452795696 519.849111079245 569.7881452795696 490.41118535047644Z " fill="#102a42" transform="matrix(0.41355081636910057,0,0,0.41355081636910057,0,96.8848503228364)"/><path d="M718.927055310859 425.0842805672655L755.2898701937968 425.0842805672655Q782.2303026647744 425.0842805672655 794.6581001564114 435.616771251899Q807.0858976480483 446.12218612500385 807.0858976480483 465.7250736717253L807.0858976480483 465.7250736717253Q807.0858976480483 474.5788640415843 804.1617100029573 482.5391526309988Q801.2645981693947 490.4723654088847 794.7934792140545 496.53734719129574Q788.3223602587141 502.57525316217817 777.8169453856092 506.0409570378416Q767.2844547009757 509.5337367250337 752.0678486218909 509.5337367250337L752.0678486218909 509.5337367250337L735.1183906049744 509.5337367250337L735.1183906049744 564.2539518243763L718.927055310859 564.2539518243763L718.927055310859 425.0842805672655ZM753.7736247481939 438.89294444686215L753.7736247481939 438.89294444686215L735.1183906049744 438.89294444686215L735.1183906049744 495.61676959932265L750.2537692494733 495.61676959932265Q763.5750685215547 495.61676959932265 772.483010514471 492.7738093888174Q781.3638766958586 489.90377336678364 785.8584614096096 483.48680603450055Q790.325970311832 477.0698387022174 790.325970311832 466.4019689599408L790.325970311832 466.4019689599408Q790.325970311832 452.5120776457584 781.4721799419731 445.68897314054595Q772.618389572114 438.89294444686215 753.7736247481939 438.89294444686215ZM881.219469613412 458.035543197597L881.219469613412 458.035543197597Q884.360263750732 458.035543197597 887.7988918148667 458.36045293594043Q891.210444067473 458.6853626742839 893.8909494088064 459.25395471638495L893.8909494088064 459.25395471638495L891.8873393556885 473.92904456489737Q889.3151372604696 473.25214927668185 886.1743431231496 472.8730879152812Q883.0335489858296 472.4940265538805 880.2718162099102 472.4940265538805L880.2718162099102 472.4940265538805Q873.9902279352702 472.4940265538805 868.4126107603743 475.0120770260422Q862.862069397007 477.53012749820397 858.6653186100709 482.241318704184Q854.4685678231347 486.952509910164 852.085896408616 493.5860837346761Q849.730300805626 500.1925817476596 849.730300805626 508.2882493947171L849.730300805626 508.2882493947171L849.730300805626 564.2539518243763L833.809723626797 564.2539518243763L833.809723626797 459.9308500046005L846.9685680297066 459.9308500046005L848.6743441560097 479.1546761899212L849.3512394442253 479.1546761899212Q852.5732610161313 473.3604525227964 857.1490731644681 468.5409580707019Q861.7248853128049 463.72146361860734 867.7627912836874 460.8785034081022Q873.8006972545697 458.035543197597 881.219469613412 458.035543197597ZM1003.439682853606 511.88933232802367L1003.439682853606 511.88933232802367Q1003.439682853606 524.7503428041185 1000.1093580355857 534.8496205042941Q996.7790332175655 544.9218223929411 990.4974449429253 551.8803059557965Q984.2158566682854 558.8387895186521 975.3079146753691 562.4940240750159Q966.4270484939814 566.1492586313798 955.1905867096038 566.1492586313798L955.1905867096038 566.1492586313798Q944.7122476480276 566.1492586313798 936.0209121473404 562.4940240750159Q927.3025008351244 558.8387895186521 920.9667609374271 551.8803059557965Q914.6310210397301 544.9218223929411 911.1653171640664 534.8496205042941Q907.699613288403 524.7503428041185 907.699613288403 511.88933232802367L907.699613288403 511.88933232802367Q907.699613288403 494.77741944193536 913.493836955528 482.7286833116991Q919.3151364341813 470.6799471814629 930.118385234101 464.3442072837656Q940.9216340340206 458.035543197597 955.8674819978194 458.035543197597L955.8674819978194 458.035543197597Q970.1364346734026 458.035543197597 980.8313802272078 464.39835890682286Q991.5534015925416 470.7882504275774 997.5100801288381 482.809910746285Q1003.439682853606 494.8586468765212 1003.439682853606 511.88933232802367ZM924.05340345169 511.88933232802367L924.05340345169 511.88933232802367Q924.05340345169 524.4525088773037 927.3837282697102 533.6853606085634Q930.7140530877307 542.9182123398231 937.6725366505862 547.9813890956752Q944.6310202134418 553.0174900399986 955.5696480710046 553.0174900399986L955.5696480710046 553.0174900399986Q966.4270484939814 553.0174900399986 973.4126078683655 547.9813890956752Q980.4252430542783 542.9182123398231 983.7555678722988 533.6853606085634Q987.085892690319 524.4525088773037 987.085892690319 511.88933232802367L987.085892690319 511.88933232802367Q987.085892690319 499.43445902485814 983.7555678722988 490.3369863512416Q980.4252430542783 481.239513677625 973.4667594914229 476.311715979416Q966.5082759285674 471.35684246967844 955.4613448248901 471.35684246967844L955.4613448248901 471.35684246967844Q939.188782096189 471.35684246967844 931.6346306797038 482.10593964654083Q924.05340345169 492.85503682340334 924.05340345169 511.88933232802367ZM1067.8801142917234 566.1492586313798L1067.8801142917234 566.1492586313798Q1048.0876960643018 566.1492586313798 1036.5263245415806 552.638428678598Q1024.9649530188597 539.1275987258161 1024.9649530188597 512.4579243701248L1024.9649530188597 512.4579243701248Q1024.9649530188597 485.5445677106757 1036.7700068453382 471.79005545413634Q1048.5750606718168 458.035543197597 1068.1779482185384 458.035543197597L1068.1779482185384 458.035543197597Q1076.4631465462962 458.035543197597 1082.636431574822 460.20160811988666Q1088.8367924148758 462.394748853705 1093.3043013170984 466.0770592215974Q1097.7718102193207 469.7322937779612 1100.831376922055 474.38933336088394L1100.831376922055 474.38933336088394L1101.968561006257 474.38933336088394Q1101.5894996448562 471.4380699042643 1101.2104382834557 466.29366571382633Q1100.831376922055 461.17633733491704 1100.831376922055 457.92723995148253L1100.831376922055 457.92723995148253L1100.831376922055 416.1492627628207L1116.6165750432408 416.1492627628207L1116.6165750432408 564.2539518243763L1103.8638678132604 564.2539518243763L1101.4811963987418 549.4164071066921L1100.831376922055 549.4164071066921Q1097.8801134654352 554.0734466896149 1093.3584529401555 557.8640603036217Q1088.8367924148758 561.6817497291573 1082.6093557632933 563.9290420860328Q1076.3548433001818 566.1492586313798 1067.8801142917234 566.1492586313798ZM1070.3710889523566 553.0174900399986L1070.3710889523566 553.0174900399986Q1087.131016288573 553.0174900399986 1094.0624240398997 543.5138801934528Q1101.0209076027552 533.9831945353783 1101.0209076027552 515.219657146044L1101.0209076027552 515.219657146044L1101.0209076027552 512.3766969355389Q1101.0209076027552 492.4759754620026 1094.4144095897718 481.80810571972603Q1087.7808357652598 471.16731178897805 1070.3710889523566 471.16731178897805L1070.3710889523566 471.16731178897805Q1055.8043023499586 471.16731178897805 1048.5750606718168 482.34962195029846Q1041.345818993675 493.53193211161886 1041.345818993675 512.864061543054L1041.345818993675 512.864061543054Q1041.345818993675 532.0878877283748 1048.5209090487597 542.5391509784224Q1055.695999103844 553.0174900399986 1070.3710889523566 553.0174900399986ZM1220.2898573863297 459.9308500046005L1236.18335875363 459.9308500046005L1236.18335875363 564.2539518243763L1223.2411208429494 564.2539518243763L1220.9667526745452 549.6059377873925L1220.1003267056294 549.6059377873925Q1216.851229322195 555.0211000931166 1211.7339009432856 558.7304862725376Q1206.5894967528475 562.4398724519586 1200.145453609036 564.3081034474335Q1193.7284862767526 566.1492586313798 1186.499244598611 566.1492586313798L1186.499244598611 566.1492586313798Q1174.1255987300312 566.1492586313798 1165.732097156159 562.1691143366725Q1157.365671393815 558.1618942304366 1153.1418447953504 549.7954684680927Q1148.8909423853568 541.4019668942203 1148.8909423853568 528.2701983028393L1148.8909423853568 528.2701983028393L1148.8909423853568 459.9308500046005L1164.8927469987716 459.9308500046005L1164.8927469987716 527.1330142186372Q1164.8927469987716 540.1835553754324 1170.795273912011 546.6005227077155Q1176.6978008252504 553.0174900399986 1188.7736127670153 553.0174900399986L1188.7736127670153 553.0174900399986Q1200.3891359127936 553.0174900399986 1207.293467852592 548.6312085723621Q1214.19779979239 544.2720029162541 1217.2302906835955 535.7431222847385Q1220.2898573863297 527.2142416532231 1220.2898573863297 514.8405957846434L1220.2898573863297 514.8405957846434L1220.2898573863297 459.9308500046005ZM1311.37288736861 566.1492586313798L1311.37288736861 566.1492586313798Q1297.293465373727 566.1492586313798 1286.5443681968648 560.3550349642549Q1275.7952710200022 554.5337354856014 1269.7844408606484 542.6474542245369Q1263.8006865128234 530.7340971519437 1263.8006865128234 512.6745308623538L1263.8006865128234 512.6745308623538Q1263.8006865128234 493.7214627923192 1270.1093505989918 481.67272666208294Q1276.4450904966893 469.6239905318467 1287.5732490349524 463.8297668647218Q1298.728483384744 458.035543197597 1312.9162086257413 458.035543197597L1312.9162086257413 458.035543197597Q1320.7140423459841 458.035543197597 1327.997435647183 459.605940266257Q1335.2808289483821 461.17633733491704 1339.937868531305 463.531932937907L1339.937868531305 463.531932937907L1335.1725257022676 476.7720047754026Q1330.434258684759 474.8766979683991 1324.1797462216475 473.3604525227964Q1317.9523095700647 471.81713126566495 1312.5371472643408 471.81713126566495L1312.5371472643408 471.81713126566495Q1301.6797468413636 471.81713126566495 1294.4775809747505 476.5012466601164Q1287.302490919666 481.15828624303913 1283.7284837978882 490.2016072935985Q1280.1544766761103 499.2449283441578 1280.1544766761103 512.4579243701248L1280.1544766761103 512.4579243701248Q1280.1544766761103 525.1294041655192 1283.6472563633022 534.0914977814928Q1287.1129602389658 543.0265155859375 1294.0172921787641 547.7377067919176Q1300.9216241185622 552.4488979978976 1311.291659934024 552.4488979978976L1311.291659934024 552.4488979978976Q1319.576858261782 552.4488979978976 1326.2375078978228 550.6889702485373Q1332.8981575338635 548.929042499177 1338.3133198395876 546.5463710846583L1338.3133198395876 546.5463710846583L1338.3133198395876 560.625793079541Q1333.087688214564 563.3062984208746 1326.6707208822809 564.7413164318914Q1320.2266777384689 566.1492586313798 1311.37288736861 566.1492586313798ZM1396.6616936837654 553.207020720699L1396.6616936837654 553.207020720699Q1400.5876863554154 553.207020720699 1404.6761338962372 552.557201244012Q1408.764581437059 551.8803059557965 1411.3367835322779 550.9326525522948L1411.3367835322779 550.9326525522948L1411.3367835322779 563.1979951747601Q1408.5750507563585 564.4434825050766 1403.674328869678 565.3099084739924Q1398.773606982998 566.1492586313798 1394.0894915885465 566.1492586313798L1394.0894915885465 566.1492586313798Q1385.831369072317 566.1492586313798 1379.062416190162 563.2521467978173Q1372.2934633080067 560.3550349642549 1368.2591673902423 553.3965514013994Q1364.2248714724778 546.4651436500724 1364.2248714724778 534.1727252160786L1364.2248714724778 534.1727252160786L1364.2248714724778 472.30449587318014L1349.3602509432649 472.30449587318014L1349.3602509432649 464.58788958752325L1364.3060989070636 458.41460455899767L1370.5876871817036 435.7521503095421L1380.1183728397782 435.7521503095421L1380.1183728397782 459.9308500046005L1410.6598882440624 459.9308500046005L1410.6598882440624 472.30449587318014L1380.1183728397782 472.30449587318014L1380.1183728397782 533.6853606085634Q1380.1183728397782 543.5138801934528 1384.6400333650577 548.3604504570759Q1389.1616938903373 553.207020720699 1396.6616936837654 553.207020720699ZM1485.4703554976413 564.2539518243763L1485.4703554976413 425.0842805672655L1524.8927370833135 425.0842805672655Q1550.966743585375 425.0842805672655 1564.0985121767562 432.88211428750833Q1577.257356579666 440.7070238192797 1577.257356579666 459.4434853970853L1577.257356579666 459.4434853970853Q1577.257356579666 467.5391530441429 1574.1436382538745 473.95612037642604Q1571.0569957396117 480.40016352023775 1565.1544688263725 484.56983849564534Q1559.2519419131331 488.76658928258155 1550.5876822239743 490.39113797429883L1550.5876822239743 490.39113797429883L1550.5876822239743 491.33879137780053Q1559.7393065206481 492.7738093888174 1566.7790175180899 496.56442300282436Q1573.818728515531 500.3821124283599 1577.8259486217669 507.23229274510095Q1581.8060929164742 514.0824730618419 1581.8060929164742 524.6420395580041L1581.8060929164742 524.6420395580041Q1581.8060929164742 537.5030500340989 1575.8764901917061 546.3568404039579Q1569.9198116554096 555.2106307738169 1559.0624112324326 559.7322912990966Q1548.2050108094559 564.2539518243763 1533.3674660917716 564.2539518243763L1533.3674660917716 564.2539518243763L1485.4703554976413 564.2539518243763ZM1501.6616907917567 438.89294444686215L1501.6616907917567 484.7593691763457L1528.3042893359193 484.7593691763457Q1546.4992346831527 484.7593691763457 1553.4847940575369 478.77561482852053Q1560.4974292434497 472.7647846691667 1560.4974292434497 461.2575647695029L1560.4974292434497 461.2575647695029Q1560.4974292434497 449.37128350843835 1552.1580792926343 444.11857607188597Q1543.8458051533478 438.89294444686215 1525.6508598061148 438.89294444686215L1525.6508598061148 438.89294444686215L1501.6616907917567 438.89294444686215ZM1529.1707153048353 498.37850237524196L1501.6616907917567 498.37850237524196L1501.6616907917567 550.4452879447797L1530.6057333158524 550.4452879447797Q1549.1526642129575 550.4452879447797 1556.8692704986145 543.1618946435807Q1564.5858767842715 535.8785013423817 1564.5858767842715 523.5048554738021L1564.5858767842715 523.5048554738021Q1564.5858767842715 515.6257943189734 1561.1201729086079 509.99402552102026Q1557.6273932214158 504.3893325345957 1549.8837111242303 501.38391745491884Q1542.112953215516 498.37850237524196 1529.1707153048353 498.37850237524196L1529.1707153048353 498.37850237524196ZM1679.279014419509 459.9308500046005L1695.172515786809 459.9308500046005L1695.172515786809 564.2539518243763L1682.2302778761286 564.2539518243763L1679.9559097077245 549.6059377873925L1679.0894837388087 549.6059377873925Q1675.8674621669024 555.0211000931166 1670.7230579764648 558.7304862725376Q1665.578653786027 562.4398724519586 1659.1616864537436 564.3081034474335Q1652.717643309932 566.1492586313798 1645.48840163179 566.1492586313798L1645.48840163179 566.1492586313798Q1633.1147557632107 566.1492586313798 1624.7483300008666 562.1691143366725Q1616.3548284269943 558.1618942304366 1612.1310018285294 549.7954684680927Q1607.9071752300647 541.4019668942203 1607.9071752300647 528.2701983028393L1607.9071752300647 528.2701983028393L1607.9071752300647 459.9308500046005L1623.8819040319509 459.9308500046005L1623.8819040319509 527.1330142186372Q1623.8819040319509 540.1835553754324 1629.7844309451903 546.6005227077155Q1635.6869578584297 553.0174900399986 1647.7898456117227 553.0174900399986L1647.7898456117227 553.0174900399986Q1659.4053687575013 553.0174900399986 1666.282624885771 548.6312085723621Q1673.1869568255693 544.2720029162541 1676.2465235283034 535.7431222847385Q1679.279014419509 527.2142416532231 1679.279014419509 514.8405957846434L1679.279014419509 514.8405957846434L1679.279014419509 459.9308500046005ZM1728.5840672131274 459.9308500046005L1744.3963411458417 459.9308500046005L1744.3963411458417 564.2539518243763L1728.5840672131274 564.2539518243763L1728.5840672131274 459.9308500046005ZM1736.679734860185 420.8875297803293L1736.679734860185 420.8875297803293Q1740.5786517203064 420.8875297803293 1743.3945361192827 423.4326560640197Q1746.210420518259 425.9507065361814 1746.210420518259 431.28464140731967L1746.210420518259 431.28464140731967Q1746.210420518259 436.5102730323435 1743.3945361192827 439.0824751275625Q1740.5786517203064 441.65467722278146 1736.679734860185 441.65467722278146L1736.679734860185 441.65467722278146Q1732.5912873193633 441.65467722278146 1729.8837061665013 439.0824751275625Q1727.1761250136392 436.5102730323435 1727.1761250136392 431.28464140731967L1727.1761250136392 431.28464140731967Q1727.1761250136392 425.9507065361814 1729.8837061665013 423.4326560640197Q1732.5912873193633 420.8875297803293 1736.679734860185 420.8875297803293ZM1793.7013939394606 416.1492627628207L1793.7013939394606 564.2539518243763L1777.8078925721597 564.2539518243763L1777.8078925721597 416.1492627628207L1793.7013939394606 416.1492627628207ZM1864.1526555369314 566.1492586313798L1864.1526555369314 566.1492586313798Q1844.333161497981 566.1492586313798 1832.7717899752602 552.638428678598Q1821.2104184525388 539.1275987258161 1821.2104184525388 512.4579243701248L1821.2104184525388 512.4579243701248Q1821.2104184525388 485.5445677106757 1833.0154722790176 471.79005545413634Q1844.8205261054964 458.035543197597 1864.4234136522177 458.035543197597L1864.4234136522177 458.035543197597Q1872.7086119799756 458.035543197597 1878.9089728200297 460.20160811988666Q1885.0822578485554 462.394748853705 1889.549766750778 466.0770592215974Q1894.044351464529 469.7322937779612 1897.0768423557342 474.38933336088394L1897.0768423557342 474.38933336088394L1898.2140264399363 474.38933336088394Q1897.8349650785358 471.4380699042643 1897.4559037171348 466.29366571382633Q1897.0768423557342 461.17633733491704 1897.0768423557342 457.92723995148253L1897.0768423557342 457.92723995148253L1897.0768423557342 416.1492627628207L1912.8891162884488 416.1492627628207L1912.8891162884488 564.2539518243763L1900.1364090584684 564.2539518243763L1897.75373764395 549.4164071066921L1897.0768423557342 549.4164071066921Q1894.1255788991143 554.0734466896149 1889.6039183738349 557.8640603036217Q1885.0822578485554 561.6817497291573 1878.8548211969728 563.9290420860328Q1872.6273845453898 566.1492586313798 1864.1526555369314 566.1492586313798ZM1866.6165543860361 553.0174900399986L1866.6165543860361 553.0174900399986Q1883.3764817222523 553.0174900399986 1890.307889473579 543.5138801934528Q1897.2663730364347 533.9831945353783 1897.2663730364347 515.219657146044L1897.2663730364347 515.219657146044L1897.2663730364347 512.3766969355389Q1897.2663730364347 492.4759754620026 1890.6598750234511 481.80810571972603Q1884.026301198939 471.16731178897805 1866.6165543860361 471.16731178897805L1866.6165543860361 471.16731178897805Q1852.049767783638 471.16731178897805 1844.8205261054964 482.34962195029846Q1837.5912844273544 493.53193211161886 1837.5912844273544 512.864061543054L1837.5912844273544 512.864061543054Q1837.5912844273544 532.0878877283748 1844.766374482439 542.5391509784224Q1851.968540349052 553.0174900399986 1866.6165543860361 553.0174900399986ZM1986.4540962117117 458.035543197597L1986.4540962117117 458.035543197597Q1999.7753954837926 458.035543197597 2009.3060811418673 463.93807011083635Q2018.8367667999419 469.813521212547 2023.8728677442655 480.4272393317664Q2028.9089686885886 491.04095745098573 2028.9089686885886 505.228682691983L2028.9089686885886 505.228682691983L2028.9089686885886 515.0301264653438L1956.8602342109289 515.0301264653438Q1957.1309923262152 533.4146024932772 1965.984782696074 543.0265155859375Q1974.838573065933 552.638428678598 1990.9216051139338 552.638428678598L1990.9216051139338 552.638428678598Q2000.8313521334094 552.638428678598 2008.4396551729515 550.8243493061804Q2016.0750340240224 549.0102699337627 2024.251929105666 545.4904144350421L2024.251929105666 545.4904144350421L2024.251929105666 559.4073815607532Q2016.3457921393087 562.9272370594738 2008.6021100421235 564.5517857511911Q2000.8313521334094 566.1492586313798 1990.271785637247 566.1492586313798L1990.271785637247 566.1492586313798Q1975.217634427334 566.1492586313798 1964.0353242660135 560.0301252259114Q1952.853014104693 553.8839160089145 1946.6797290761674 541.9705589363214Q1940.4793682361133 530.0842776752569 1940.4793682361133 512.864061543054L1940.4793682361133 512.864061543054Q1940.4793682361133 495.9958309607233 1946.1382128455948 483.6763367152009Q1951.8241332666053 471.35684246967844 1962.1400174590099 464.6961928336377Q1972.4559016514145 458.035543197597 1986.4540962117117 458.035543197597ZM1986.2645655310112 470.9777811082777L1986.2645655310112 470.9777811082777Q1973.6201615471455 470.9777811082777 1966.0930859421883 479.26297943603566Q1958.566010337232 487.52110195226504 1957.1309923262152 502.38572248147784L1957.1309923262152 502.38572248147784L2012.338572033073 502.38572248147784Q2012.2573445984872 493.04456750410367 2009.4414601995104 485.950704883605Q2006.6526516120625 478.8568422631064 2000.9396553795236 474.93084959145637Q1995.2266591469847 470.9777811082777 1986.2645655310112 470.9777811082777ZM2103.150843900067 458.035543197597L2103.150843900067 458.035543197597Q2106.2916380373867 458.035543197597 2109.730266101522 458.36045293594043Q2113.1418183541277 458.6853626742839 2115.822323695462 459.25395471638495L2115.822323695462 459.25395471638495L2113.8187136423435 473.92904456489737Q2111.2465115471246 473.25214927668185 2108.1057174098046 472.8730879152812Q2104.9649232724846 472.4940265538805 2102.203190496565 472.4940265538805L2102.203190496565 472.4940265538805Q2095.9216022219252 472.4940265538805 2090.343985047029 475.0120770260422Q2084.7934436836617 477.53012749820397 2080.596692896726 482.241318704184Q2076.3999421097897 486.952509910164 2074.0443465067997 493.5860837346761Q2071.661675092281 500.1925817476596 2071.661675092281 508.2882493947171L2071.661675092281 508.2882493947171L2071.661675092281 564.2539518243763L2055.7681737249804 564.2539518243763L2055.7681737249804 459.9308500046005L2068.899942316362 459.9308500046005L2070.605718442665 479.1546761899212L2071.2826137308803 479.1546761899212Q2074.504635302786 473.3604525227964 2079.080447451123 468.5409580707019Q2083.6562595994596 463.72146361860734 2089.694165570342 460.8785034081022Q2095.7320715412247 458.035543197597 2103.150843900067 458.035543197597Z " fill="#289da8" transform="matrix(0.41355081636910057,0,0,0.41355081636910057,0,96.8848503228364)"/></g></svg>